<?xml version="1.0" encoding="UTF-8" standalone="no"?>
<!-- Created with Inkscape (http://www.inkscape.org/) -->

<svg
   width="210mm"
   height="297mm"
   viewBox="0 0 210 297"
   version="1.1"
   id="svg5"
   sodipodi:docname="pic.svg"
   inkscape:version="1.2.2 (b0a8486541, 2022-12-01)"
   xmlns:inkscape="http://www.inkscape.org/namespaces/inkscape"
   xmlns:sodipodi="http://sodipodi.sourceforge.net/DTD/sodipodi-0.dtd"
   xmlns="http://www.w3.org/2000/svg"
   xmlns:svg="http://www.w3.org/2000/svg">
  <sodipodi:namedview
     id="namedview7"
     pagecolor="#ffffff"
     bordercolor="#000000"
     borderopacity="0.25"
     inkscape:showpageshadow="2"
     inkscape:pageopacity="0.0"
     inkscape:pagecheckerboard="0"
     inkscape:deskcolor="#d1d1d1"
     inkscape:document-units="mm"
     showgrid="false"
     inkscape:zoom="0.77147868"
     inkscape:cx="-30.460984"
     inkscape:cy="460.1553"
     inkscape:window-width="1920"
     inkscape:window-height="1011"
     inkscape:window-x="1920"
     inkscape:window-y="32"
     inkscape:window-maximized="1"
     inkscape:current-layer="layer1" />
  <defs
     id="defs2" />
  <g
     inkscape:label="Layer 1"
     inkscape:groupmode="layer"
     id="layer1">
    <rect
       style="fill:#000000;stroke-width:0.264583"
       id="rect478"
       width="42.592621"
       height="29.245308"
       x="24.447262"
       y="18.712931" />
    <rect
       style="fill:#000000;stroke-width:0.264583"
       id="rect486"
       width="18.176758"
       height="40.905495"
       x="32.614239"
       y="58.962162" />
    <ellipse
       style="fill:#000000;stroke-width:0.264583"
       id="path547"
       cx="17.28977"
       cy="55.989208"
       rx="10.982843"
       ry="7.3732109" />
    <rect
       style="fill:none;stroke-width:2.365;stroke:#000000;stroke-opacity:1;stroke-dasharray:none"
       id="rect605"
       width="55.884766"
       height="28.580906"
       x="80.687958"
       y="20.041792" />
    <path
       id="rect605-3"
       style="fill:none;stroke:#000000;stroke-width:2.365"
       d="m 74.311707,57.353675 58.218563,7.338097 V 93.272678 H 76.6455 Z"
       sodipodi:nodetypes="ccccc" />
    <rect
       style="fill:#777830;stroke-width:1.665;fill-opacity:1;stroke:#0f2896;stroke-opacity:1;stroke-dasharray:none"
       id="rect478-6"
       width="42.592621"
       height="29.245308"
       x="33.273869"
       y="111.39909" />
    <rect
       style="fill:#000000;stroke-width:0.264583"
       id="rect486-7"
       width="18.176758"
       height="40.905495"
       x="41.440845"
       y="151.64832" />
    <ellipse
       style="fill:#8f3131;stroke-width:1.165;stroke:#43a52f;stroke-opacity:1;stroke-dasharray:none;fill-opacity:1"
       id="path547-5"
       cx="26.116379"
       cy="148.67537"
       rx="10.982843"
       ry="7.3732109" />
    <rect
       style="fill:none;stroke:#000000;stroke-width:2.365;stroke-dasharray:none;stroke-opacity:1"
       id="rect605-35"
       width="55.884766"
       height="28.580906"
       x="89.514565"
       y="112.72794" />
    <path
       id="rect605-3-6"
       style="fill:none;stroke:#2fa544;stroke-width:2.365;stroke-opacity:1"
       d="m 83.138314,150.03983 58.218566,7.3381 v 28.58091 H 85.472107 Z"
       sodipodi:nodetypes="ccccc" />
    <path
       style="fill:#28389f;fill-opacity:1;stroke:#43a52f;stroke-width:1.165;stroke-dasharray:none;stroke-opacity:1"
       id="path7482"
       d="m 24.489742,227.82472 c 1.590107,-2.99881 4.196261,-5.25662 6.764648,-7.39772 1.94659,-1.44967 3.889917,-2.99389 6.092613,-4.05022 1.444482,-0.69273 1.85646,-0.72094 3.432998,-1.14319 3.891161,-0.74763 7.940273,-0.72877 11.849245,-0.0827 0.657218,0.10862 1.303716,0.27432 1.955576,0.41148 1.315037,0.38528 1.68906,0.43656 2.876632,0.98477 0.32903,0.15189 1.275111,0.68944 0.958244,0.51358 -5.554782,-3.08291 -2.66065,-1.74764 -2.094162,-0.93265 0.174623,0.25122 0.270063,0.54908 0.405096,0.82362 0.821158,3.07733 0.997299,6.28891 1.1762,9.45649 0.103841,3.53719 0.434739,7.04479 1.091377,10.52109 0.346369,1.7262 0.777896,3.43958 1.378238,5.09656 0.244364,0.67446 0.673537,1.7408 1.077572,2.36145 0.212481,0.32641 0.488362,0.60684 0.732544,0.91026 1.921637,1.54183 1.942332,1.64731 5.379137,3.16584 0.485725,0.21461 1.045941,0.19472 1.5752,0.23796 2.217258,0.18118 4.156133,-0.21726 6.314162,-0.66025 3.985511,-1.02693 7.821459,-2.53231 11.718975,-3.83544 2.328929,-0.77868 4.23676,-1.34983 6.584545,-2.07196 7.446688,-2.32272 14.885038,-4.67413 22.400058,-6.7675 6.08518,-1.48339 12.27829,-2.80803 18.54936,-3.17807 0.95315,-0.0562 1.90913,-0.0437 2.8637,-0.0655 2.05762,0.0842 4.16807,0.23 6.07278,1.09657 0.42824,0.19483 1.67091,0.837 1.21618,0.71627 -2.26724,-0.60196 -3.00107,-2.00089 -1.38243,0.18612 0.31619,0.55908 0.64788,1.10968 0.94857,1.67725 0.71659,1.35261 1.43518,2.91741 2.10207,4.29058 0.93331,1.92173 1.89206,3.83012 2.86837,5.73026 0.67014,1.18548 1.302,2.44516 2.26742,3.43041 1.40668,1.43558 4.10482,2.67454 5.44761,3.35305 0.47093,0.23796 1.00322,0.3273 1.50483,0.49095 3.43703,0.91281 6.41007,0.64129 9.7597,-0.47408 0.67327,-0.22418 1.32754,-0.50182 1.99131,-0.75272 3.74091,-1.6574 7.32201,-3.64514 11.01788,-5.39948 0.48055,-0.23105 0.96111,-0.4621 1.44166,-0.69315 0,0 -3.16976,-2.08971 -3.16976,-2.08971 v 0 c -0.47309,0.23502 -0.94618,0.47004 -1.41927,0.70506 -3.66188,1.78406 -7.21836,3.78801 -10.96414,5.39414 -0.65841,0.24218 -1.30719,0.51233 -1.97522,0.72652 -3.29729,1.05721 -6.33755,1.24466 -9.67812,0.24999 -0.497,-0.18283 -1.80872,-0.97214 -1.49099,-0.54849 0.48078,0.64103 1.32012,0.91843 2.03697,1.27646 0.36134,0.18047 -0.66467,-0.46371 -0.96043,-0.73879 -1.01823,-0.94705 -1.68182,-2.20689 -2.37893,-3.38588 -2.0584,-3.85628 -3.88986,-7.82043 -5.85463,-11.72298 -1.71971,-2.58919 -0.59861,-1.24673 -5.08645,-4.10483 -2.15453,-1.37212 -4.7927,-1.47432 -7.26258,-1.54128 -0.94768,0.0366 -1.89713,0.0412 -2.84302,0.10977 -6.25524,0.45341 -12.41415,1.83702 -18.49713,3.29006 -7.53197,2.09953 -14.983721,4.46201 -22.464426,6.73489 -2.88857,0.88913 -3.728741,1.13099 -6.593662,2.07952 -3.913809,1.29581 -7.78246,2.75974 -11.79884,3.71933 -2.115785,0.38557 -4.157877,0.76533 -6.317051,0.48574 -0.524156,-0.0679 -1.804617,-0.79791 -1.549829,-0.33485 0.406739,0.73923 1.403964,0.93698 2.123543,1.37755 0.328322,0.20102 -0.632602,-0.4389 -0.948904,-0.65835 -0.257379,-0.27956 -0.549098,-0.53102 -0.772131,-0.83868 -0.425712,-0.58723 -0.89703,-1.67246 -1.149543,-2.32245 -0.637103,-1.63995 -1.08925,-3.34643 -1.442132,-5.06784 -0.647237,-3.45762 -0.975443,-6.94728 -1.08662,-10.46403 -0.174988,-3.18864 -0.38126,-6.39727 -1.032166,-9.5297 -0.107609,-0.31383 -0.165532,-0.64938 -0.322829,-0.94149 -0.120396,-0.22358 -0.283795,-0.43853 -0.495678,-0.5785 -1.305725,-0.86253 -2.672726,-1.62913 -4.028737,-2.41023 -1.172564,-0.67543 -2.507054,-1.0194 -3.806452,-1.34425 -0.649451,-0.12294 -1.294423,-0.27252 -1.948357,-0.36883 -3.954648,-0.58245 -8.038311,-0.58005 -11.964635,0.1759 -0.627206,0.17287 -1.266309,0.30727 -1.881619,0.51861 -2.890266,0.99272 -5.308936,3.01625 -7.718277,4.8194 -2.610391,2.19463 -5.225826,4.48241 -7.015645,7.42807 0,0 3.419782,1.95022 3.419782,1.95022 z" />
  </g>
</svg>
